<svg width="166" height="46" viewBox="0 0 166 46" fill="none" xmlns="http://www.w3.org/2000/svg">
<path d="M34.9852 34V9.47538H41.9221V34H34.9852ZM46.8574 34V9.47538H52.5682L62.7284 26.1521H59.7154L69.5953 9.47538H75.306L75.3761 34H68.9997L68.9296 19.1801H70.0157L62.6233 31.5826H59.5402L51.9375 19.1801H53.2689V34H46.8574ZM88.9032 34.4905C86.8945 34.4905 84.9559 34.2452 83.0874 33.7548C81.2422 33.2409 79.7357 32.5869 78.5678 31.7928L80.8451 26.6776C81.9429 27.3784 83.2042 27.9623 84.6289 28.4294C86.077 28.8732 87.5135 29.0951 88.9383 29.0951C89.8959 29.0951 90.6667 29.0133 91.2506 28.8498C91.8345 28.663 92.2549 28.4294 92.5118 28.1491C92.7921 27.8455 92.9323 27.4951 92.9323 27.0981C92.9323 26.5375 92.6753 26.0937 92.1615 25.7667C91.6476 25.4397 90.982 25.1711 90.1645 24.9609C89.347 24.7507 88.4361 24.5405 87.4317 24.3303C86.4508 24.1201 85.4581 23.8515 84.4538 23.5245C83.4728 23.1975 82.5735 22.7771 81.756 22.2632C80.9386 21.726 80.2729 21.037 79.759 20.1961C79.2452 19.3319 78.9883 18.2458 78.9883 16.9379C78.9883 15.4664 79.3853 14.1351 80.1795 12.9439C80.9969 11.7527 82.2115 10.795 83.8231 10.071C85.4347 9.34691 87.4434 8.98488 89.8492 8.98488C91.4608 8.98488 93.0374 9.17174 94.5789 9.54545C96.1438 9.8958 97.5336 10.4213 98.7481 11.122L96.611 16.2722C95.4431 15.6416 94.287 15.1744 93.1425 14.8708C91.998 14.5438 90.8885 14.3803 89.8141 14.3803C88.8565 14.3803 88.0857 14.4854 87.5018 14.6956C86.9179 14.8825 86.4975 15.1394 86.2405 15.4664C85.9836 15.7934 85.8552 16.1671 85.8552 16.5875C85.8552 17.1247 86.1004 17.5568 86.5909 17.8838C87.1047 18.1875 87.7704 18.4444 88.5879 18.6546C89.4287 18.8414 90.3397 19.04 91.3206 19.2502C92.325 19.4604 93.3177 19.729 94.2986 20.056C95.303 20.3596 96.2139 20.7801 97.0314 21.3173C97.8489 21.8311 98.5029 22.5201 98.9934 23.3843C99.5072 24.2252 99.7641 25.2879 99.7641 26.5725C99.7641 27.9973 99.3554 29.317 98.5379 30.5315C97.7438 31.7227 96.5409 32.6803 94.9293 33.4044C93.341 34.1285 91.3323 34.4905 88.9032 34.4905ZM110.641 34.3153C109.1 34.3153 107.71 34.0117 106.472 33.4044C105.257 32.7971 104.3 31.8512 103.599 30.5666C102.922 29.2586 102.583 27.6119 102.583 25.6266V15.0109H109.24V24.5405C109.24 26.012 109.508 27.063 110.046 27.6937C110.606 28.3243 111.389 28.6396 112.393 28.6396C113.047 28.6396 113.643 28.4878 114.18 28.1842C114.717 27.8805 115.149 27.4017 115.476 26.7477C115.803 26.0704 115.967 25.2062 115.967 24.1551V15.0109H122.623V34H116.282V28.6396L117.508 30.1461C116.854 31.5475 115.908 32.5986 114.67 33.2993C113.432 33.9766 112.089 34.3153 110.641 34.3153ZM126.911 34V15.0109H133.252V20.5465L132.306 18.9699C132.867 17.5451 133.778 16.4824 135.039 15.7817C136.3 15.0576 137.83 14.6956 139.629 14.6956V20.6866C139.325 20.6399 139.056 20.6166 138.823 20.6166C138.613 20.5932 138.379 20.5815 138.122 20.5815C136.767 20.5815 135.67 20.9552 134.829 21.7027C133.988 22.4267 133.568 23.6179 133.568 25.2762V34H126.911ZM152.155 34.3153C149.912 34.3153 147.95 33.8949 146.269 33.0541C144.61 32.1898 143.314 31.022 142.38 29.5505C141.469 28.0557 141.013 26.3623 141.013 24.4704C141.013 22.5785 141.457 20.8968 142.345 19.4254C143.256 17.9305 144.505 16.7744 146.093 15.9569C147.682 15.116 149.469 14.6956 151.454 14.6956C153.322 14.6956 155.027 15.081 156.569 15.8518C158.111 16.5992 159.337 17.7086 160.248 19.1801C161.159 20.6516 161.614 22.4384 161.614 24.5405C161.614 24.7741 161.602 25.0427 161.579 25.3463C161.556 25.6499 161.532 25.9302 161.509 26.1872H146.479V22.6836H157.97L155.448 23.6646C155.471 22.8004 155.308 22.053 154.957 21.4224C154.63 20.7917 154.163 20.3012 153.556 19.9509C152.972 19.6005 152.283 19.4254 151.489 19.4254C150.695 19.4254 149.994 19.6005 149.387 19.9509C148.803 20.3012 148.347 20.8034 148.02 21.4574C147.693 22.088 147.53 22.8355 147.53 23.6997V24.7157C147.53 25.6499 147.717 26.4558 148.09 27.1331C148.488 27.8105 149.048 28.336 149.772 28.7097C150.496 29.06 151.36 29.2352 152.365 29.2352C153.299 29.2352 154.093 29.1068 154.747 28.8498C155.425 28.5695 156.09 28.1491 156.744 27.5886L160.248 31.2322C159.337 32.2366 158.216 33.0073 156.884 33.5445C155.553 34.0584 153.976 34.3153 152.155 34.3153Z" fill="white"/>
<path d="M0 34.201L15.7603 6.67337L21.6884 14.15L8.53079 34.201H0Z" fill="white"/>
<path d="M15.8492 27.1775L22.9885 15.8492L31.6985 27.1775H27.026L27.4149 34.201H20.2756V27.1775H15.8492Z" fill="white"/>
</svg>
